<?xml version="1.0" encoding="UTF-8"?>
<svg xmlns="http://www.w3.org/2000/svg" xmlns:xlink="http://www.w3.org/1999/xlink" width="225pt" height="211pt" viewBox="0 0 225 211" version="1.1">
<g id="surface53652">
<path style="fill-rule:evenodd;fill:rgb(100%,100%,100%);fill-opacity:1;stroke-width:0.8;stroke-linecap:butt;stroke-linejoin:round;stroke:rgb(0%,0%,0%);stroke-opacity:1;stroke-miterlimit:10;" d="M 128 640 L 96 640 L 112 656 L 144 656 L 128 656 L 160 704 L 192 704 L 224 656 L 208 656 L 240 656 L 256 640 L 224 640 " transform="matrix(1,0,0,-1,-63,820)"/>
<path style="fill:none;stroke-width:0.4;stroke-linecap:butt;stroke-linejoin:round;stroke:rgb(0%,0%,0%);stroke-opacity:1;stroke-miterlimit:10;" d="M 64 640 L 288 640 " transform="matrix(1,0,0,-1,-63,820)"/>
<path style="fill-rule:evenodd;fill:rgb(100%,100%,100%);fill-opacity:1;stroke-width:0.4;stroke-linecap:butt;stroke-linejoin:round;stroke:rgb(0%,0%,0%);stroke-opacity:1;stroke-miterlimit:10;" d="M 176.570313 655.75 C 164.953125 655.824219 155.25 665.214844 141.777344 681.484375 C 128.308594 697.757813 111.074219 720.910156 99.179688 739.386719 C 87.285156 757.859375 80.734375 771.660156 84.660156 783.039063 C 88.589844 794.414063 103 803.371094 114.820313 802.859375 C 126.640625 802.34375 135.871094 792.363281 149.105469 775.792969 C 162.335938 759.226563 179.570313 736.074219 191.265625 718.039063 C 202.957031 700.007813 209.105469 687.09375 205.414063 676.011719 C 201.71875 664.929688 188.1875 655.679688 176.570313 655.75 Z M 176.570313 655.75 " transform="matrix(1,0,0,-1,-63,820)"/>
<path style="fill-rule:evenodd;fill:rgb(70.6%,32.2%,80.4%);fill-opacity:1;stroke-width:0.4;stroke-linecap:butt;stroke-linejoin:round;stroke:rgb(0%,0%,0%);stroke-opacity:1;stroke-miterlimit:10;" d="M 240.34375 768.398438 L 248.039063 754.371094 L 262.066406 762.0625 L 277.453125 734.003906 L 271.117188 712.28125 L 255.730469 740.339844 L 241.703125 732.648438 L 257.085938 704.589844 L 235.367188 710.925781 L 219.980469 738.984375 L 234.007813 746.675781 L 226.316406 760.707031 " transform="matrix(1,0,0,-1,-63,820)"/>
<path style="fill-rule:evenodd;fill:rgb(100%,100%,100%);fill-opacity:1;stroke-width:0.4;stroke-linecap:butt;stroke-linejoin:round;stroke:rgb(0%,0%,0%);stroke-opacity:1;stroke-miterlimit:10;" d="M 85.976563 785.382813 C 91.230469 795.742188 103.96875 800.226563 124.542969 805.007813 C 145.117188 809.789063 173.53125 814.863281 195.375 817.25 C 217.21875 819.632813 232.492188 819.332031 240.917969 810.734375 C 249.339844 802.136719 250.914063 785.242188 245.171875 774.898438 C 239.433594 764.550781 226.375 760.753906 205.640625 756.316406 C 184.90625 751.882813 156.496094 746.804688 135.136719 744.402344 C 113.78125 742 99.480469 742.269531 91.214844 750.527344 C 82.949219 758.78125 80.722656 775.019531 85.976563 785.382813 Z M 85.976563 785.382813 " transform="matrix(1,0,0,-1,-63,820)"/>
<path style="fill-rule:evenodd;fill:rgb(80.4%,20%,20%);fill-opacity:1;stroke-width:0.4;stroke-linecap:butt;stroke-linejoin:round;stroke:rgb(0%,0%,0%);stroke-opacity:1;stroke-miterlimit:10;" d="M 195.121094 699.222656 C 187.953125 709.460938 173.847656 711.949219 163.609375 704.785156 C 153.371094 697.617188 150.878906 683.507813 158.046875 673.273438 C 165.214844 663.035156 179.324219 660.542969 189.558594 667.710938 C 199.796875 674.875 202.289063 688.984375 195.121094 699.222656 Z M 195.121094 699.222656 " transform="matrix(1,0,0,-1,-63,820)"/>
<path style="fill-rule:evenodd;fill:rgb(25.1%,38.8%,84.7%);fill-opacity:1;stroke-width:0.4;stroke-linecap:butt;stroke-linejoin:round;stroke:rgb(0%,0%,0%);stroke-opacity:1;stroke-miterlimit:10;" d="M 133 784.65625 C 125.835938 794.894531 111.726563 797.382813 101.488281 790.21875 C 91.25 783.050781 88.761719 768.941406 95.925781 758.703125 C 103.09375 748.464844 117.203125 745.976563 127.441406 753.144531 C 137.679688 760.308594 140.167969 774.417969 133 784.65625 Z M 133 784.65625 " transform="matrix(1,0,0,-1,-63,820)"/>
<path style="fill-rule:evenodd;fill:rgb(22%,59.6%,14.9%);fill-opacity:1;stroke-width:0.4;stroke-linecap:butt;stroke-linejoin:round;stroke:rgb(0%,0%,0%);stroke-opacity:1;stroke-miterlimit:10;" d="M 221.234375 813.648438 C 208.738281 813.527344 198.707031 803.296875 198.832031 790.800781 C 198.953125 778.304688 209.183594 768.273438 221.679688 768.398438 C 234.175781 768.519531 244.207031 778.75 244.082031 791.246094 C 243.960938 803.742188 233.730469 813.773438 221.234375 813.648438 Z M 221.234375 813.648438 " transform="matrix(1,0,0,-1,-63,820)"/>
</g>
</svg>
